<svg width="16.000000" height="16.000000" viewBox="0 0 16 16" fill="none" xmlns="http://www.w3.org/2000/svg" xmlns:xlink="http://www.w3.org/1999/xlink">
	<desc>
			Created with Pixso.
	</desc>
	<defs/>
	<path id="path" d="M1.12469 1.12469C0 2.24942 0 4.0596 0 7.67999L0 8.32001C0 11.9404 0 13.7506 1.12469 14.8753C2.24939 16 4.05963 16 7.67999 16L8.32001 16C11.9404 16 13.7506 16 14.8753 14.8753C16 13.7506 16 11.9404 16 8.32001L16 7.67999C16 4.0596 16 2.24942 14.8753 1.12469C13.7506 0 11.9404 0 8.32001 0L7.67999 0C4.05963 0 2.24939 0 1.12469 1.12469ZM2.75 5C2.83667 9.16 4.91663 11.66 8.56329 11.66L8.77002 11.66L8.77002 9.28C10.11 9.41333 11.1233 10.3933 11.5299 11.66L13.4233 11.66C12.9033 9.76666 11.5366 8.72 10.6833 8.32001C11.5366 7.82666 12.7366 6.62668 13.0233 5L11.3032 5C10.9299 6.32001 9.82336 7.51666 8.77002 7.63L8.77002 5L7.04999 5L7.04999 9.60999C5.98328 9.34332 4.63666 8.05334 4.57666 5L2.75 5Z" fill="#FFFFFF" fill-opacity="1.000000" fill-rule="evenodd"/>
	<path id="path" d="M8.56329 11.66C4.91663 11.66 2.83667 9.16 2.75 5L4.57666 5C4.63666 8.05334 5.98328 9.34332 7.04999 9.60999L7.04999 5L8.77002 5L8.77002 7.63C9.82336 7.51666 10.9299 6.32001 11.3032 5L13.0233 5C12.7366 6.62668 11.5366 7.82666 10.6833 8.32001C11.5366 8.72 12.9033 9.76666 13.4233 11.66L11.5299 11.66C11.1233 10.3933 10.11 9.41333 8.77002 9.28L8.77002 11.66L8.56329 11.66Z" fill="#005FF9" fill-opacity="1.000000" fill-rule="evenodd"/>
</svg>
